<svg xmlns="http://www.w3.org/2000/svg" viewBox="0 0 1200 600">
  <rect fill="#1a1a2e" width="1200" height="600"/>
  
  <!-- Title -->
  <text x="20" y="30" fill="#ffffff" font-size="18" font-weight="bold">📊 监控大屏 - P95 响应时间</text>
  
  <!-- Panel 1: P95 -->
  <rect x="20" y="50" width="370" height="170" fill="#16213e" stroke="#0f3460" stroke-width="2" rx="5"/>
  <text x="30" y="70" fill="#e94560" font-size="14">P95 响应时间</text>
  <text x="30" y="140" fill="#ffffff" font-size="36" font-weight="bold">245ms</text>
  <text x="120" y="140" fill="#e94560" font-size="14">↑ 12%</text>
  
  <!-- Panel 2: P99 -->
  <rect x="410" y="50" width="370" height="170" fill="#16213e" stroke="#0f3460" stroke-width="2" rx="5"/>
  <text x="420" y="70" fill="#e94560" font-size="14">P99 响应时间</text>
  <text x="420" y="140" fill="#ffffff" font-size="36" font-weight="bold">532ms</text>
  <text x="510" y="140" fill="#e94560" font-size="14">↑ 8%</text>
  
  <!-- Panel 3: QPS -->
  <rect x="800" y="50" width="370" height="170" fill="#16213e" stroke="#0f3460" stroke-width="2" rx="5"/>
  <text x="810" y="70" fill="#e94560" font-size="14">请求量 QPS</text>
  <text x="810" y="140" fill="#ffffff" font-size="36" font-weight="bold">12.5K</text>
  <text x="920" y="140" fill="#4ecca3" font-size="14">↓ 3%</text>
  
  <!-- Panel 4: Chart -->
  <rect x="20" y="240" width="760" height="340" fill="#16213e" stroke="#0f3460" stroke-width="2" rx="5"/>
  <text x="30" y="260" fill="#e94560" font-size="14">P95 趋势（24h）</text>
  
  <!-- Chart grid -->
  <line x1="30" y1="280" x2="770" y2="280" stroke="#0f3460" stroke-width="1"/>
  <line x1="30" y1="330" x2="770" y2="330" stroke="#0f3460" stroke-width="1"/>
  <line x1="30" y1="380" x2="770" y2="380" stroke="#0f3460" stroke-width="1"/>
  <line x1="30" y1="430" x2="770" y2="430" stroke="#0f3460" stroke-width="1"/>
  <line x1="30" y1="480" x2="770" y2="480" stroke="#0f3460" stroke-width="1"/>
  <line x1="30" y1="530" x2="770" y2="530" stroke="#0f3460" stroke-width="1"/>
  
  <!-- Chart line -->
  <polyline points="30,450 100,430 170,440 240,400 310,420 380,380 450,390 520,350 590,370 660,340 730,360 770,350" 
            fill="none" stroke="#e94560" stroke-width="2"/>
  
  <!-- Panel 5: Top APIs -->
  <rect x="800" y="240" width="370" height="340" fill="#16213e" stroke="#0f3460" stroke-width="2" rx="5"/>
  <text x="810" y="260" fill="#e94560" font-size="14">Top 5 慢接口</text>
  
  <!-- Top 5 list -->
  <text x="820" y="290" fill="#ffffff" font-size="12">1. POST /api/order/create - 892ms</text>
  <text x="820" y="320" fill="#ffffff" font-size="12">2. GET /api/product/list - 654ms</text>
  <text x="820" y="350" fill="#ffffff" font-size="12">3. POST /api/payment - 521ms</text>
  <text x="820" y="380" fill="#ffffff" font-size="12">4. GET /api/user/profile - 387ms</text>
  <text x="820" y="410" fill="#ffffff" font-size="12">5. POST /api/cart/add - 298ms</text>
  
  <!-- Footer -->
  <text x="1180" y="590" fill="#666666" font-size="10" text-anchor="end">最后更新：2026-03-20 16:52</text>
</svg>
