<svg xmlns="http://www.w3.org/2000/svg" viewBox="0 0 900 460" font-family="system-ui,-apple-system,sans-serif">
  <rect width="900" height="460" fill="#0d1117" rx="12"/>
  <text x="450" y="36" text-anchor="middle" fill="#e6edf3" font-size="20" font-weight="bold">AI 应用四大范式演进</text>
  <defs><marker id="ah" markerWidth="10" markerHeight="7" refX="10" refY="3.5" orient="auto"><polygon points="0 0,10 3.5,0 7" fill="#58a6ff"/></marker></defs>
  <line x1="140" y1="250" x2="248" y2="250" stroke="#58a6ff" stroke-width="2" marker-end="url(#ah)"/>
  <line x1="358" y1="250" x2="468" y2="250" stroke="#58a6ff" stroke-width="2" marker-end="url(#ah)"/>
  <line x1="578" y1="250" x2="688" y2="250" stroke="#58a6ff" stroke-width="2" marker-end="url(#ah)"/>
  <!-- Chatbot -->
  <rect x="20" y="90" width="130" height="290" rx="10" fill="#1f2937" stroke="#3b82f6" stroke-width="2"/>
  <text x="85" y="120" text-anchor="middle" fill="#3b82f6" font-size="15" font-weight="bold">Chatbot</text>
  <text x="85" y="138" text-anchor="middle" fill="#8b949e" font-size="10">对话机器人</text>
  <line x1="35" y1="150" x2="135" y2="150" stroke="#30363d"/>
  <text x="85" y="172" text-anchor="middle" fill="#c9d1d9" font-size="11">用户提问</text>
  <text x="85" y="194" text-anchor="middle" fill="#c9d1d9" font-size="11">AI 回答</text>
  <text x="85" y="216" text-anchor="middle" fill="#c9d1d9" font-size="11">一问一答</text>
  <rect x="35" y="234" width="100" height="22" rx="4" fill="#3b82f6" opacity="0.15"/>
  <text x="85" y="250" text-anchor="middle" fill="#f0883e" font-size="9">无工具 无规划</text>
  <text x="85" y="280" text-anchor="middle" fill="#8b949e" font-size="9">ChatGPT</text>
  <text x="85" y="296" text-anchor="middle" fill="#8b949e" font-size="9">Claude</text>
  <text x="85" y="312" text-anchor="middle" fill="#8b949e" font-size="9">Gemini</text>
  <!-- Workflow -->
  <rect x="248" y="90" width="130" height="290" rx="10" fill="#1f2937" stroke="#10b981" stroke-width="2"/>
  <text x="313" y="120" text-anchor="middle" fill="#10b981" font-size="15" font-weight="bold">Workflow</text>
  <text x="313" y="138" text-anchor="middle" fill="#8b949e" font-size="10">工作流</text>
  <line x1="263" y1="150" x2="363" y2="150" stroke="#30363d"/>
  <text x="313" y="172" text-anchor="middle" fill="#c9d1d9" font-size="11">预定义流程</text>
  <text x="313" y="194" text-anchor="middle" fill="#c9d1d9" font-size="11">调用工具</text>
  <text x="313" y="216" text-anchor="middle" fill="#c9d1d9" font-size="11">按步骤执行</text>
  <rect x="263" y="234" width="100" height="22" rx="4" fill="#10b981" opacity="0.15"/>
  <text x="313" y="250" text-anchor="middle" fill="#f0883e" font-size="9">有工具 无决策</text>
  <text x="313" y="280" text-anchor="middle" fill="#8b949e" font-size="9">Dify</text>
  <text x="313" y="296" text-anchor="middle" fill="#8b949e" font-size="9">Coze</text>
  <text x="313" y="312" text-anchor="middle" fill="#8b949e" font-size="9">n8n</text>
  <!-- Agent -->
  <rect x="468" y="90" width="130" height="290" rx="10" fill="#1f2937" stroke="#f59e0b" stroke-width="2"/>
  <text x="533" y="120" text-anchor="middle" fill="#f59e0b" font-size="15" font-weight="bold">Agent</text>
  <text x="533" y="138" text-anchor="middle" fill="#8b949e" font-size="10">智能体</text>
  <line x1="483" y1="150" x2="583" y2="150" stroke="#30363d"/>
  <text x="533" y="172" text-anchor="middle" fill="#c9d1d9" font-size="11">自主规划</text>
  <text x="533" y="194" text-anchor="middle" fill="#c9d1d9" font-size="11">选择工具</text>
  <text x="533" y="216" text-anchor="middle" fill="#c9d1d9" font-size="11">反思调整</text>
  <rect x="483" y="234" width="100" height="22" rx="4" fill="#f59e0b" opacity="0.15"/>
  <text x="533" y="250" text-anchor="middle" fill="#f0883e" font-size="9">有工具 有决策</text>
  <text x="533" y="280" text-anchor="middle" fill="#8b949e" font-size="9">AutoGPT</text>
  <text x="533" y="296" text-anchor="middle" fill="#8b949e" font-size="9">CrewAI</text>
  <text x="533" y="312" text-anchor="middle" fill="#8b949e" font-size="9">LangChain</text>
  <!-- Multi-Agent -->
  <rect x="688" y="90" width="190" height="290" rx="10" fill="#1f2937" stroke="#ef4444" stroke-width="2"/>
  <text x="783" y="120" text-anchor="middle" fill="#ef4444" font-size="15" font-weight="bold">Multi-Agent</text>
  <text x="783" y="138" text-anchor="middle" fill="#8b949e" font-size="10">多智能体协作</text>
  <line x1="703" y1="150" x2="863" y2="150" stroke="#30363d"/>
  <text x="783" y="172" text-anchor="middle" fill="#c9d1d9" font-size="11">多 Agent 协作</text>
  <text x="783" y="194" text-anchor="middle" fill="#c9d1d9" font-size="11">角色分工</text>
  <text x="783" y="216" text-anchor="middle" fill="#c9d1d9" font-size="11">相互通信</text>
  <rect x="733" y="234" width="100" height="22" rx="4" fill="#ef4444" opacity="0.15"/>
  <text x="783" y="250" text-anchor="middle" fill="#f0883e" font-size="9">有协作 有决策</text>
  <text x="783" y="280" text-anchor="middle" fill="#8b949e" font-size="9">MetaGPT</text>
  <text x="783" y="296" text-anchor="middle" fill="#8b949e" font-size="9">AutoGen</text>
  <text x="783" y="312" text-anchor="middle" fill="#8b949e" font-size="9">CrewAI Multi</text>
  <!-- 底部能力递增条 -->
  <rect x="20" y="420" width="858" height="8" rx="4" fill="#1f2937"/>
  <rect x="20" y="420" width="215" height="8" rx="4" fill="#3b82f6" opacity="0.5"/>
  <rect x="235" y="420" width="215" height="8" fill="#10b981" opacity="0.6"/>
  <rect x="450" y="420" width="215" height="8" fill="#f59e0b" opacity="0.7"/>
  <rect x="665" y="420" width="213" height="8" rx="4" fill="#ef4444" opacity="0.8"/>
  <text x="450" y="450" text-anchor="middle" fill="#8b949e" font-size="11">自主能力递增 →</text>
</svg>